<svg width="42" height="26" viewBox="0 0 42 26" fill="none" xmlns="http://www.w3.org/2000/svg">
<path d="M32.6667 9.75V2.16667C32.6667 1.59203 32.4208 1.04093 31.9832 0.634602C31.5457 0.228274 30.9522 0 30.3333 0H2.33333C1.71449 0 1.121 0.228274 0.683417 0.634602C0.245833 1.04093 0 1.59203 0 2.16667V23.8333C0 24.408 0.245833 24.9591 0.683417 25.3654C1.121 25.7717 1.71449 26 2.33333 26H30.3333C30.9522 26 31.5457 25.7717 31.9832 25.3654C32.4208 24.9591 32.6667 24.408 32.6667 23.8333V16.25L42 24.9167V1.08333L32.6667 9.75Z" fill="white"/>
</svg>
