<svg width="36" height="34" viewBox="0 0 36 34" fill="none" xmlns="http://www.w3.org/2000/svg">
<path d="M32.7273 24.7273H9.81818V3.09091H32.7273M32.7273 0H9.81818C8.9502 0 8.11777 0.325648 7.50401 0.905306C6.89026 1.48496 6.54545 2.27115 6.54545 3.09091V24.7273C6.54545 25.547 6.89026 26.3332 7.50401 26.9129C8.11777 27.4925 8.9502 27.8182 9.81818 27.8182H32.7273C33.5953 27.8182 34.4277 27.4925 35.0414 26.9129C35.6552 26.3332 36 25.547 36 24.7273V3.09091C36 2.27115 35.6552 1.48496 35.0414 0.905306C34.4277 0.325648 33.5953 0 32.7273 0ZM3.27273 6.18182H0V30.9091C0 31.7288 0.344804 32.515 0.95856 33.0947C1.57232 33.6744 2.40475 34 3.27273 34H29.4545V30.9091H3.27273M24.48 14.3573L19.98 19.8282L16.7727 16.1809L12.2727 21.6364H30.2727L24.48 14.3573Z" fill="white"/>
</svg>
