<svg width="85" height="85" viewBox="0 0 85 85" fill="none" xmlns="http://www.w3.org/2000/svg">
<rect width="65" height="65" rx="32.5" transform="matrix(-1 0 0 1 75 6.00098)" fill="#898A8B" fill-opacity="0.37"/>
<g filter="url(#filter0_d_88_265)">
<path d="M33.05 16.001H51.95C59.15 16.001 65 21.851 65 29.051V47.951C65 51.4121 63.6251 54.7314 61.1777 57.1787C58.7304 59.6261 55.4111 61.001 51.95 61.001H33.05C25.85 61.001 20 55.151 20 47.951V29.051C20 25.5899 21.3749 22.2706 23.8223 19.8232C26.2696 17.3759 29.5889 16.001 33.05 16.001ZM32.6 20.501C30.4517 20.501 28.3915 21.3544 26.8724 22.8734C25.3534 24.3925 24.5 26.4527 24.5 28.601V48.401C24.5 52.8785 28.1225 56.501 32.6 56.501H52.4C54.5483 56.501 56.6085 55.6476 58.1276 54.1285C59.6466 52.6095 60.5 50.5492 60.5 48.401V28.601C60.5 24.1235 56.8775 20.501 52.4 20.501H32.6ZM54.3125 23.876C55.0584 23.876 55.7738 24.1723 56.3012 24.6997C56.8287 25.2272 57.125 25.9426 57.125 26.6885C57.125 27.4344 56.8287 28.1498 56.3012 28.6772C55.7738 29.2047 55.0584 29.501 54.3125 29.501C53.5666 29.501 52.8512 29.2047 52.3238 28.6772C51.7963 28.1498 51.5 27.4344 51.5 26.6885C51.5 25.9426 51.7963 25.2272 52.3238 24.6997C52.8512 24.1723 53.5666 23.876 54.3125 23.876ZM42.5 27.251C45.4837 27.251 48.3452 28.4362 50.455 30.546C52.5647 32.6558 53.75 35.5173 53.75 38.501C53.75 41.4847 52.5647 44.3461 50.455 46.4559C48.3452 48.5657 45.4837 49.751 42.5 49.751C39.5163 49.751 36.6548 48.5657 34.545 46.4559C32.4353 44.3461 31.25 41.4847 31.25 38.501C31.25 35.5173 32.4353 32.6558 34.545 30.546C36.6548 28.4362 39.5163 27.251 42.5 27.251ZM42.5 31.751C40.7098 31.751 38.9929 32.4621 37.727 33.728C36.4612 34.9939 35.75 36.7108 35.75 38.501C35.75 40.2912 36.4612 42.0081 37.727 43.2739C38.9929 44.5398 40.7098 45.251 42.5 45.251C44.2902 45.251 46.0071 44.5398 47.273 43.2739C48.5388 42.0081 49.25 40.2912 49.25 38.501C49.25 36.7108 48.5388 34.9939 47.273 33.728C46.0071 32.4621 44.2902 31.751 42.5 31.751Z" fill="black"/>
</g>
<defs>
<filter id="filter0_d_88_265" x="0.4" y="0.400976" width="84.2" height="84.2" filterUnits="userSpaceOnUse" color-interpolation-filters="sRGB">
<feFlood flood-opacity="0" result="BackgroundImageFix"/>
<feColorMatrix in="SourceAlpha" type="matrix" values="0 0 0 0 0 0 0 0 0 0 0 0 0 0 0 0 0 0 127 0" result="hardAlpha"/>
<feOffset dy="4"/>
<feGaussianBlur stdDeviation="9.8"/>
<feComposite in2="hardAlpha" operator="out"/>
<feColorMatrix type="matrix" values="0 0 0 0 0 0 0 0 0 0 0 0 0 0 0 0 0 0 0.25 0"/>
<feBlend mode="normal" in2="BackgroundImageFix" result="effect1_dropShadow_88_265"/>
<feBlend mode="normal" in="SourceGraphic" in2="effect1_dropShadow_88_265" result="shape"/>
</filter>
</defs>
</svg>
