<svg width="28" height="26" viewBox="0 0 28 26" fill="none" xmlns="http://www.w3.org/2000/svg">
<path d="M11.8642 14.9832C12.4853 15.5318 12.4853 16.432 11.8642 16.9805C11.2735 17.5291 10.304 17.5291 9.71328 16.9805C6.75954 14.2378 6.75954 9.77901 9.71328 7.03625L15.0755 2.05707C18.0292 -0.685691 22.8309 -0.685691 25.7847 2.05707C28.7384 4.79984 28.7384 9.25859 25.7847 12.0014L23.5277 14.0971C23.5429 12.9437 23.346 11.7904 22.9218 10.6933L23.6338 10.0181C25.4212 8.37246 25.4212 5.70003 23.6338 4.05437C21.8615 2.39464 18.9835 2.39464 17.2113 4.05437L11.8642 9.01947C10.0768 10.6651 10.0768 13.3376 11.8642 14.9832ZM16.1358 9.01947C16.7265 8.47092 17.696 8.47092 18.2867 9.01947C21.2405 11.7622 21.2405 16.221 18.2867 18.9638L12.9245 23.9429C9.97079 26.6857 5.16906 26.6857 2.21531 23.9429C-0.738436 21.2002 -0.738436 16.7414 2.21531 13.9986L4.47228 11.9029C4.45713 13.0563 4.65404 14.2096 5.07817 15.3208L4.36624 15.9819C2.57885 17.6275 2.57885 20.3 4.36624 21.9456C6.13849 23.6054 9.0165 23.6054 10.7887 21.9456L16.1358 16.9805C17.9232 15.3349 17.9232 12.6624 16.1358 11.0168C15.5147 10.4682 15.5147 9.56803 16.1358 9.01947Z" fill="white"/>
</svg>
