<svg width="101" height="50" viewBox="0 0 101 50" fill="none" xmlns="http://www.w3.org/2000/svg">
<path d="M25.9953 35.788C24.7367 35.276 23.6593 34.7853 22.7633 34.316C22.1447 34.6147 21.5473 34.86 20.9713 35.052C19.9047 35.372 18.934 35.5427 18.0593 35.564C17.206 35.6067 16.3527 35.5213 15.4993 35.308C14.6673 35.0947 13.7713 34.764 12.8113 34.316C11.4247 33.612 10.2513 32.7053 9.29133 31.596C8.33133 30.508 7.64866 29.3347 7.24333 28.076C6.83799 26.796 6.63533 25.452 6.63533 24.044C6.63533 22.6573 6.84866 21.324 7.27533 20.044C7.68066 18.764 8.28866 17.548 9.09933 16.396C9.90999 15.244 10.87 14.2627 11.9793 13.452C12.0433 13.4093 12.2247 13.3133 12.5233 13.164C12.8433 13.0147 13.1953 12.8547 13.5793 12.684C13.9633 12.492 14.294 12.332 14.5713 12.204C14.87 12.076 15.03 12.0013 15.0513 11.98C15.9047 11.5747 16.6833 11.6707 17.3873 12.268L17.7393 12.204C18.678 12.076 19.4033 12.0227 19.9153 12.044C20.8113 12.0653 21.6327 12.2573 22.3793 12.62C23.1473 12.9827 23.9473 13.548 24.7793 14.316C26.1233 15.5533 27.158 17.1213 27.8833 19.02C28.3527 20.2787 28.6407 21.5907 28.7473 22.956C28.854 24.3213 28.7793 25.6547 28.5233 26.956C28.2673 28.236 27.83 29.3987 27.2113 30.444C27.0407 30.7213 26.838 30.9987 26.6033 31.276L27.7233 31.756C28.2353 31.9693 28.5873 32.2893 28.7793 32.716C28.9713 33.1213 29.046 33.5587 29.0033 34.028C28.9607 34.476 28.8007 34.8813 28.5233 35.244C28.2673 35.5853 27.9153 35.82 27.4673 35.948C27.0407 36.0973 26.55 36.044 25.9953 35.788ZM18.1553 31.18L17.3873 30.508C16.9393 30.124 16.694 29.6227 16.6513 29.004C16.6087 28.3853 16.79 27.8627 17.1953 27.436C17.6007 27.0093 18.0913 26.764 18.6673 26.7C19.2647 26.6147 19.8087 26.796 20.2993 27.244C21.1313 27.948 21.91 28.556 22.6353 29.068C22.998 28.748 23.2647 28.4493 23.4353 28.172C23.8833 27.4253 24.1713 26.572 24.2993 25.612C24.4273 24.6307 24.4167 23.6387 24.2673 22.636C24.118 21.6333 23.83 20.684 23.4033 19.788C22.9767 18.892 22.4433 18.156 21.8033 17.58C20.9927 16.8333 20.3207 16.4493 19.7873 16.428C19.51 16.428 19.03 16.4707 18.3473 16.556C17.2593 16.7053 16.3953 16.812 15.7553 16.876C15.4993 16.876 15.2433 16.844 14.9873 16.78C14.902 16.8227 14.8273 16.8653 14.7633 16.908C14.6993 16.9507 14.6247 16.9933 14.5393 17.036C13.622 17.6973 12.8647 18.508 12.2673 19.468C11.67 20.4707 11.2967 21.484 11.1473 22.508C10.998 23.5533 11.0193 24.588 11.2113 25.612C11.4033 26.6147 11.8087 27.532 12.4273 28.364C13.046 29.2173 13.8247 29.8787 14.7633 30.348C16.1073 30.988 17.238 31.2653 18.1553 31.18ZM46.1508 33.804C45.6602 31.6067 45.2335 29.9533 44.8708 28.844C44.4868 27.884 44.0495 27.18 43.5588 26.732C43.0255 26.2413 42.2575 25.932 41.2548 25.804C41.0202 25.8253 40.7002 25.8467 40.2948 25.868C39.8895 25.868 39.6762 25.868 39.6548 25.868C38.8228 25.8893 38.1828 25.9107 37.7348 25.932H36.7748C36.7962 28.8333 36.8068 31.2867 36.8068 33.292C36.8068 33.8893 36.6575 34.3693 36.3588 34.732C36.0602 35.0733 35.6868 35.308 35.2388 35.436C34.7908 35.5427 34.3428 35.5427 33.8948 35.436C33.4468 35.308 33.0735 35.0733 32.7748 34.732C32.4762 34.3693 32.3268 33.8893 32.3268 33.292C32.3268 30.8813 32.3055 27.6813 32.2628 23.692C32.2202 19.7027 32.1988 16.716 32.1988 14.732C32.1988 14.1133 32.4122 13.5907 32.8388 13.164C33.2868 12.716 33.8202 12.492 34.4388 12.492H34.5988C37.6495 12.108 40.4868 12.1187 43.1108 12.524C45.1375 12.8227 46.7375 13.388 47.9108 14.22C49.6815 15.4573 50.5135 17.1213 50.4068 19.212C50.2788 21.26 49.2122 22.8813 47.2068 24.076C47.7188 24.6733 48.1562 25.3453 48.5188 26.092C48.9028 26.8173 49.2442 27.7133 49.5428 28.78C49.8628 29.8253 50.1828 31.1373 50.5028 32.716C50.6522 33.292 50.6202 33.7933 50.4068 34.22C50.1935 34.6253 49.8842 34.9453 49.4788 35.18C49.0735 35.3933 48.6362 35.5 48.1668 35.5C47.7188 35.4787 47.3028 35.34 46.9188 35.084C46.5562 34.8067 46.3002 34.38 46.1508 33.804ZM36.7108 21.452H36.8068C38.5775 21.2387 40.0922 21.196 41.3508 21.324C41.5215 21.3027 41.6708 21.2813 41.7988 21.26C43.0575 21.0467 44.0708 20.7267 44.8388 20.3C45.5428 19.8947 45.9055 19.4467 45.9268 18.956C45.9695 18.5293 45.7882 18.1773 45.3828 17.9C44.7428 17.452 43.7508 17.132 42.4068 16.94C40.7855 16.684 38.8762 16.6307 36.6788 16.78C36.6788 18.0813 36.6895 19.6387 36.7108 21.452Z" fill="#394A77"/>
<path d="M59.9051 34.68C59.7451 34.32 59.7384 33.9667 59.8851 33.62L64.3651 22.08C64.4717 21.8267 64.6384 21.62 64.8651 21.46C65.0917 21.3 65.3451 21.2133 65.6251 21.2C65.9184 21.1467 66.2051 21.2 66.4851 21.36C66.7784 21.5067 66.9984 21.72 67.1451 22L68.6251 25.68L70.3651 29.98L71.7451 33.58C71.8784 33.9267 71.8984 34.24 71.8051 34.52C71.7117 34.7867 71.5451 35.0067 71.3051 35.18C71.0784 35.3533 70.8184 35.46 70.5251 35.5C70.2451 35.5267 69.9717 35.4733 69.7051 35.34C69.4517 35.2067 69.2517 34.9733 69.1051 34.64L67.9451 32C66.4517 31.96 64.9717 31.9733 63.5051 32.04L62.5251 34.68C62.3517 35.0533 62.0851 35.3067 61.7251 35.44C61.3784 35.56 61.0251 35.56 60.6651 35.44C60.3184 35.3067 60.0651 35.0533 59.9051 34.68ZM64.6651 29.18C64.9184 29.18 65.2251 29.18 65.5851 29.18C65.9584 29.18 66.3851 29.18 66.8651 29.18L65.8051 26.3L64.6651 29.18ZM73.5516 34.1C73.5516 33.5933 73.5516 33 73.5516 32.32C73.565 31.6267 73.5716 30.9133 73.5716 30.18C73.5716 29.4467 73.5716 28.76 73.5716 28.12C73.5583 27.7333 73.545 27.22 73.5316 26.58C73.5316 25.94 73.5183 25.2667 73.4916 24.56C73.4783 23.84 73.4583 23.1867 73.4316 22.6C73.4183 22.2133 73.5383 21.88 73.7916 21.6C74.0583 21.32 74.385 21.1667 74.7716 21.14H74.8716C76.7116 21.1133 79.1916 21.1133 82.3116 21.14C82.685 21.14 83.0116 21.28 83.2916 21.56C83.585 21.8667 83.7183 22.2067 83.6916 22.58C83.6783 22.94 83.5383 23.26 83.2716 23.54C83.0183 23.8067 82.685 23.94 82.2716 23.94C79.7916 23.9133 77.7916 23.9067 76.2716 23.92C76.2983 24.7733 76.3183 25.6667 76.3316 26.6C78.2116 26.6 79.945 26.58 81.5316 26.54C81.9983 26.54 82.345 26.68 82.5716 26.96C82.8116 27.2267 82.9316 27.5467 82.9316 27.92C82.945 28.28 82.8383 28.6067 82.6116 28.9C82.3983 29.18 82.065 29.3267 81.6116 29.34C80.0116 29.3667 78.2583 29.3867 76.3516 29.4V34.1C76.3516 34.4733 76.2583 34.7733 76.0716 35C75.885 35.2133 75.6516 35.36 75.3716 35.44C75.0916 35.5067 74.8116 35.5067 74.5316 35.44C74.2516 35.36 74.0183 35.2133 73.8316 35C73.645 34.7733 73.5516 34.4733 73.5516 34.1ZM91.002 34.12C90.9886 34.5733 90.8353 34.9133 90.542 35.14C90.262 35.3667 89.9353 35.48 89.562 35.48C89.202 35.4667 88.882 35.3467 88.602 35.12C88.3353 34.88 88.202 34.5333 88.202 34.08C88.2153 33.6667 88.2086 31.78 88.182 28.42C88.1686 26.62 88.1953 25.1133 88.262 23.9C87.1953 23.9 86.2953 23.9067 85.562 23.92C85.1086 23.92 84.762 23.7867 84.522 23.52C84.2953 23.24 84.1753 22.92 84.162 22.56C84.162 22.1867 84.2753 21.86 84.502 21.58C84.7286 21.2867 85.0686 21.1333 85.522 21.12C85.8553 21.12 86.2953 21.12 86.842 21.12C87.402 21.1067 88.0086 21.1 88.662 21.1C89.3286 21.0867 89.9886 21.08 90.642 21.08C91.3086 21.08 91.9153 21.08 92.462 21.08C93.022 21.08 93.4686 21.08 93.802 21.08C94.1753 21.08 94.4686 21.1733 94.682 21.36C94.9086 21.5467 95.062 21.78 95.142 22.06C95.222 22.34 95.2286 22.62 95.162 22.9C95.0953 23.18 94.9553 23.4133 94.742 23.6C94.5286 23.7867 94.242 23.88 93.882 23.88C93.042 23.88 92.102 23.8867 91.062 23.9C90.9953 25.06 90.9686 26.56 90.982 28.4C91.0086 31.8 91.0153 33.7067 91.002 34.12Z" fill="black"/>
<path d="M7.41667 4.58333V12.75H3V4.58333C3 3.50037 3.46533 2.46175 4.29361 1.69598C5.1219 0.930207 6.24529 0.5 7.41667 0.5L16.25 0.5V4.58333H7.41667ZM51.5833 0.5C52.7547 0.5 53.8781 0.930207 54.7064 1.69598C55.5347 2.46175 56 3.50037 56 4.58333V12.75H51.5833V8.66667V6.625C51.5833 5.82768 51.5833 5.38065 51.5833 4.58333C51.5833 4.58333 50.2374 4.58333 49.375 4.58333C48.5126 4.58333 47.1667 4.58333 47.1667 4.58333H42.75V0.5H51.5833ZM7.41667 37.25V45.4167H16.25V49.5H7.41667C6.24529 49.5 5.1219 49.0698 4.29361 48.304C3.46533 47.5382 3 46.4996 3 45.4167V37.25H7.41667ZM51.5833 45.4167V37.25H56V45.4167C56 46.4996 55.5347 47.5382 54.7064 48.304C53.8781 49.0698 52.7547 49.5 51.5833 49.5H42.75V45.4167H51.5833Z" fill="#2C2F47"/>
</svg>
