<svg width="28" height="26" viewBox="0 0 28 26" fill="none" xmlns="http://www.w3.org/2000/svg">
<path d="M2.8 5.2H0V23.4C0 24.0896 0.294999 24.7509 0.820101 25.2385C1.3452 25.7261 2.05739 26 2.8 26H22.4V23.4H2.8M22.4 6.5H18.2V13.65C18.2 14.512 17.8313 15.3386 17.1749 15.9481C16.5185 16.5576 15.6283 16.9 14.7 16.9C13.7717 16.9 12.8815 16.5576 12.2251 15.9481C11.5687 15.3386 11.2 14.512 11.2 13.65C11.2 12.788 11.5687 11.9614 12.2251 11.3519C12.8815 10.7424 13.7717 10.4 14.7 10.4C15.498 10.4 16.212 10.647 16.8 11.05V3.9H22.4M25.2 0H8.4C7.65739 0 6.9452 0.273928 6.4201 0.761522C5.895 1.24912 5.6 1.91044 5.6 2.6V18.2C5.6 18.8896 5.895 19.5509 6.4201 20.0385C6.9452 20.5261 7.65739 20.8 8.4 20.8H25.2C25.9426 20.8 26.6548 20.5261 27.1799 20.0385C27.705 19.5509 28 18.8896 28 18.2V2.6C28 1.91044 27.705 1.24912 27.1799 0.761522C26.6548 0.273928 25.9426 0 25.2 0Z" fill="white"/>
</svg>
