<svg width="40" height="38" viewBox="0 0 40 38" fill="none" xmlns="http://www.w3.org/2000/svg">
<path d="M35.5556 0H4.44444C2 0 0 1.9 0 4.22222V33.7778C0 36.1 2 38 4.44444 38H35.5556C38 38 40 36.1 40 33.7778V4.22222C40 1.9 38 0 35.5556 0ZM14.4444 17.9444C14.4444 19.6333 12.8889 21.1111 11.1111 21.1111H8.88889V25.3333H5.55556V12.6667H11.1111C12.8889 12.6667 14.4444 14.1444 14.4444 15.8333V17.9444ZM25.5556 22.1667C25.5556 23.8556 24 25.3333 22.2222 25.3333H16.6667V12.6667H22.2222C24 12.6667 25.5556 14.1444 25.5556 15.8333V22.1667ZM34.4444 15.8333H31.1111V17.9444H34.4444V21.1111H31.1111V25.3333H27.7778V12.6667H34.4444V15.8333ZM20 15.8333H22.2222V22.1667H20V15.8333ZM8.88889 15.8333H11.1111V17.9444H8.88889V15.8333Z" fill="white"/>
</svg>
