<svg width="44" height="45" viewBox="0 0 44 45" fill="none" xmlns="http://www.w3.org/2000/svg">
<path d="M31.592 27C31.768 25.515 31.9 24.03 31.9 22.5C31.9 20.97 31.768 19.485 31.592 18H39.028C39.38 19.44 39.6 20.9475 39.6 22.5C39.6 24.0525 39.38 25.56 39.028 27M27.698 39.51C29.018 37.0125 30.03 34.3125 30.734 31.5H37.224C35.112 35.2125 31.746 38.0925 27.698 39.51ZM27.148 27H16.852C16.632 25.515 16.5 24.03 16.5 22.5C16.5 20.97 16.632 19.4625 16.852 18H27.148C27.346 19.4625 27.5 20.97 27.5 22.5C27.5 24.03 27.346 25.515 27.148 27ZM22 40.41C20.174 37.71 18.7 34.7175 17.798 31.5H26.202C25.3 34.7175 23.826 37.71 22 40.41ZM13.2 13.5H6.776C8.866 9.765 12.254 6.885 16.28 5.49C14.96 7.9875 13.97 10.6875 13.2 13.5ZM6.776 31.5H13.2C13.97 34.3125 14.96 37.0125 16.28 39.51C12.254 38.0925 8.866 35.2125 6.776 31.5ZM4.972 27C4.62 25.56 4.4 24.0525 4.4 22.5C4.4 20.9475 4.62 19.44 4.972 18H12.408C12.232 19.485 12.1 20.97 12.1 22.5C12.1 24.03 12.232 25.515 12.408 27M22 4.5675C23.826 7.2675 25.3 10.2825 26.202 13.5H17.798C18.7 10.2825 20.174 7.2675 22 4.5675ZM37.224 13.5H30.734C30.03 10.6875 29.018 7.9875 27.698 5.49C31.746 6.9075 35.112 9.765 37.224 13.5ZM22 0C9.834 0 0 10.125 0 22.5C0 28.4674 2.31785 34.1903 6.44365 38.4099C8.48654 40.4992 10.9118 42.1566 13.581 43.2873C16.2501 44.418 19.1109 45 22 45C27.8348 45 33.4305 42.6295 37.5564 38.4099C41.6822 34.1903 44 28.4674 44 22.5C44 19.5453 43.431 16.6194 42.3254 13.8896C41.2197 11.1598 39.5992 8.67942 37.5564 6.5901C35.5135 4.50078 33.0882 2.84344 30.419 1.71271C27.7499 0.58198 24.8891 0 22 0Z" fill="white"/>
</svg>
