<svg width="102" height="57" viewBox="0 0 102 57" fill="none" xmlns="http://www.w3.org/2000/svg">
<g filter="url(#filter0_d_83_204)">
<path d="M26.9953 35.289C25.7367 34.777 24.6593 34.2863 23.7633 33.817C23.1447 34.1156 22.5473 34.361 21.9713 34.553C20.9047 34.873 19.934 35.0436 19.0593 35.065C18.206 35.1076 17.3527 35.0223 16.4993 34.809C15.6673 34.5956 14.7713 34.265 13.8113 33.817C12.4247 33.113 11.2513 32.2063 10.2913 31.097C9.33133 30.009 8.64866 28.8356 8.24333 27.577C7.83799 26.297 7.63533 24.953 7.63533 23.545C7.63533 22.1583 7.84866 20.825 8.27533 19.545C8.68066 18.265 9.28866 17.049 10.0993 15.897C10.91 14.745 11.87 13.7636 12.9793 12.953C13.0433 12.9103 13.2247 12.8143 13.5233 12.665C13.8433 12.5156 14.1953 12.3556 14.5793 12.185C14.9633 11.993 15.294 11.833 15.5713 11.705C15.87 11.577 16.03 11.5023 16.0513 11.481C16.9047 11.0756 17.6833 11.1716 18.3873 11.769L18.7393 11.705C19.678 11.577 20.4033 11.5236 20.9153 11.545C21.8113 11.5663 22.6327 11.7583 23.3793 12.121C24.1473 12.4836 24.9473 13.049 25.7793 13.817C27.1233 15.0543 28.158 16.6223 28.8833 18.521C29.3527 19.7796 29.6407 21.0916 29.7473 22.457C29.854 23.8223 29.7793 25.1556 29.5233 26.457C29.2673 27.737 28.83 28.8996 28.2113 29.945C28.0407 30.2223 27.838 30.4996 27.6033 30.777L28.7233 31.257C29.2353 31.4703 29.5873 31.7903 29.7793 32.217C29.9713 32.6223 30.046 33.0596 30.0033 33.529C29.9607 33.977 29.8007 34.3823 29.5233 34.745C29.2673 35.0863 28.9153 35.321 28.4673 35.449C28.0407 35.5983 27.55 35.545 26.9953 35.289ZM19.1553 30.681L18.3873 30.009C17.9393 29.625 17.694 29.1236 17.6513 28.505C17.6087 27.8863 17.79 27.3636 18.1953 26.937C18.6007 26.5103 19.0913 26.265 19.6673 26.201C20.2647 26.1156 20.8087 26.297 21.2993 26.745C22.1313 27.449 22.91 28.057 23.6353 28.569C23.998 28.249 24.2647 27.9503 24.4353 27.673C24.8833 26.9263 25.1713 26.073 25.2993 25.113C25.4273 24.1316 25.4167 23.1396 25.2673 22.137C25.118 21.1343 24.83 20.185 24.4033 19.289C23.9767 18.393 23.4433 17.657 22.8033 17.081C21.9927 16.3343 21.3207 15.9503 20.7873 15.929C20.51 15.929 20.03 15.9716 19.3473 16.057C18.2593 16.2063 17.3953 16.313 16.7553 16.377C16.4993 16.377 16.2433 16.345 15.9873 16.281C15.902 16.3236 15.8273 16.3663 15.7633 16.409C15.6993 16.4516 15.6247 16.4943 15.5393 16.537C14.622 17.1983 13.8647 18.009 13.2673 18.969C12.67 19.9716 12.2967 20.985 12.1473 22.009C11.998 23.0543 12.0193 24.089 12.2113 25.113C12.4033 26.1156 12.8087 27.033 13.4273 27.865C14.046 28.7183 14.8247 29.3796 15.7633 29.849C17.1073 30.489 18.238 30.7663 19.1553 30.681ZM47.1508 33.305C46.6602 31.1076 46.2335 29.4543 45.8708 28.345C45.4868 27.385 45.0495 26.681 44.5588 26.233C44.0255 25.7423 43.2575 25.433 42.2548 25.305C42.0202 25.3263 41.7002 25.3476 41.2948 25.369C40.8895 25.369 40.6762 25.369 40.6548 25.369C39.8228 25.3903 39.1828 25.4116 38.7348 25.433H37.7748C37.7962 28.3343 37.8068 30.7876 37.8068 32.793C37.8068 33.3903 37.6575 33.8703 37.3588 34.233C37.0602 34.5743 36.6868 34.809 36.2388 34.937C35.7908 35.0436 35.3428 35.0436 34.8948 34.937C34.4468 34.809 34.0735 34.5743 33.7748 34.233C33.4762 33.8703 33.3268 33.3903 33.3268 32.793C33.3268 30.3823 33.3055 27.1823 33.2628 23.193C33.2202 19.2036 33.1988 16.217 33.1988 14.233C33.1988 13.6143 33.4122 13.0916 33.8388 12.665C34.2868 12.217 34.8202 11.993 35.4388 11.993H35.5988C38.6495 11.609 41.4868 11.6196 44.1108 12.025C46.1375 12.3236 47.7375 12.889 48.9108 13.721C50.6815 14.9583 51.5135 16.6223 51.4068 18.713C51.2788 20.761 50.2122 22.3823 48.2068 23.577C48.7188 24.1743 49.1562 24.8463 49.5188 25.593C49.9028 26.3183 50.2442 27.2143 50.5428 28.281C50.8628 29.3263 51.1828 30.6383 51.5028 32.217C51.6522 32.793 51.6202 33.2943 51.4068 33.721C51.1935 34.1263 50.8842 34.4463 50.4788 34.681C50.0735 34.8943 49.6362 35.001 49.1668 35.001C48.7188 34.9796 48.3028 34.841 47.9188 34.585C47.5562 34.3076 47.3002 33.881 47.1508 33.305ZM37.7108 20.953H37.8068C39.5775 20.7396 41.0922 20.697 42.3508 20.825C42.5215 20.8036 42.6708 20.7823 42.7988 20.761C44.0575 20.5476 45.0708 20.2276 45.8388 19.801C46.5428 19.3956 46.9055 18.9476 46.9268 18.457C46.9695 18.0303 46.7882 17.6783 46.3828 17.401C45.7428 16.953 44.7508 16.633 43.4068 16.441C41.7855 16.185 39.8762 16.1316 37.6788 16.281C37.6788 17.5823 37.6895 19.1396 37.7108 20.953Z" fill="white"/>
<path d="M60.9051 34.181C60.7451 33.821 60.7384 33.4676 60.8851 33.121L65.3651 21.581C65.4717 21.3276 65.6384 21.121 65.8651 20.961C66.0917 20.801 66.3451 20.7143 66.6251 20.701C66.9184 20.6476 67.2051 20.701 67.4851 20.861C67.7784 21.0076 67.9984 21.221 68.1451 21.501L69.6251 25.181L71.3651 29.481L72.7451 33.081C72.8784 33.4276 72.8984 33.741 72.8051 34.021C72.7117 34.2876 72.5451 34.5076 72.3051 34.681C72.0784 34.8543 71.8184 34.961 71.5251 35.001C71.2451 35.0276 70.9717 34.9743 70.7051 34.841C70.4517 34.7076 70.2517 34.4743 70.1051 34.141L68.9451 31.501C67.4517 31.461 65.9717 31.4743 64.5051 31.541L63.5251 34.181C63.3517 34.5543 63.0851 34.8076 62.7251 34.941C62.3784 35.061 62.0251 35.061 61.6651 34.941C61.3184 34.8076 61.0651 34.5543 60.9051 34.181ZM65.6651 28.681C65.9184 28.681 66.2251 28.681 66.5851 28.681C66.9584 28.681 67.3851 28.681 67.8651 28.681L66.8051 25.801L65.6651 28.681ZM74.5516 33.601C74.5516 33.0943 74.5516 32.501 74.5516 31.821C74.565 31.1276 74.5716 30.4143 74.5716 29.681C74.5716 28.9476 74.5716 28.261 74.5716 27.621C74.5583 27.2343 74.545 26.721 74.5316 26.081C74.5316 25.441 74.5183 24.7676 74.4916 24.061C74.4783 23.341 74.4583 22.6876 74.4316 22.101C74.4183 21.7143 74.5383 21.381 74.7916 21.101C75.0583 20.821 75.385 20.6676 75.7716 20.641H75.8716C77.7116 20.6143 80.1916 20.6143 83.3116 20.641C83.685 20.641 84.0116 20.781 84.2916 21.061C84.585 21.3676 84.7183 21.7076 84.6916 22.081C84.6783 22.441 84.5383 22.761 84.2716 23.041C84.0183 23.3076 83.685 23.441 83.2716 23.441C80.7916 23.4143 78.7916 23.4076 77.2716 23.421C77.2983 24.2743 77.3183 25.1676 77.3316 26.101C79.2116 26.101 80.945 26.081 82.5316 26.041C82.9983 26.041 83.345 26.181 83.5716 26.461C83.8116 26.7276 83.9316 27.0476 83.9316 27.421C83.945 27.781 83.8383 28.1076 83.6116 28.401C83.3983 28.681 83.065 28.8276 82.6116 28.841C81.0116 28.8676 79.2583 28.8876 77.3516 28.901V33.601C77.3516 33.9743 77.2583 34.2743 77.0716 34.501C76.885 34.7143 76.6516 34.861 76.3716 34.941C76.0916 35.0076 75.8116 35.0076 75.5316 34.941C75.2516 34.861 75.0183 34.7143 74.8316 34.501C74.645 34.2743 74.5516 33.9743 74.5516 33.601ZM92.002 33.621C91.9886 34.0743 91.8353 34.4143 91.542 34.641C91.262 34.8676 90.9353 34.981 90.562 34.981C90.202 34.9676 89.882 34.8476 89.602 34.621C89.3353 34.381 89.202 34.0343 89.202 33.581C89.2153 33.1676 89.2086 31.281 89.182 27.921C89.1686 26.121 89.1953 24.6143 89.262 23.401C88.1953 23.401 87.2953 23.4076 86.562 23.421C86.1086 23.421 85.762 23.2876 85.522 23.021C85.2953 22.741 85.1753 22.421 85.162 22.061C85.162 21.6876 85.2753 21.361 85.502 21.081C85.7286 20.7876 86.0686 20.6343 86.522 20.621C86.8553 20.621 87.2953 20.621 87.842 20.621C88.402 20.6076 89.0086 20.601 89.662 20.601C90.3286 20.5876 90.9886 20.581 91.642 20.581C92.3086 20.581 92.9153 20.581 93.462 20.581C94.022 20.581 94.4686 20.581 94.802 20.581C95.1753 20.581 95.4686 20.6743 95.682 20.861C95.9086 21.0476 96.062 21.281 96.142 21.561C96.222 21.841 96.2286 22.121 96.162 22.401C96.0953 22.681 95.9553 22.9143 95.742 23.101C95.5286 23.2876 95.242 23.381 94.882 23.381C94.042 23.381 93.102 23.3876 92.062 23.401C91.9953 24.561 91.9686 26.061 91.982 27.901C92.0086 31.301 92.0153 33.2076 92.002 33.621Z" fill="#EBEBEB"/>
<path d="M8.41667 4.08431V12.251H4V4.08431C4 3.00134 4.46533 1.96273 5.29361 1.19696C6.1219 0.431184 7.24529 0.000976563 8.41667 0.000976563L17.25 0.000976562V4.08431H8.41667ZM52.5833 0.000976562C53.7547 0.000976563 54.8781 0.431184 55.7064 1.19696C56.5347 1.96273 57 3.00134 57 4.08431V12.251H52.5833V8.16764V6.12598C52.5833 5.32866 52.5833 4.88163 52.5833 4.08431C52.5833 4.08431 51.2374 4.08431 50.375 4.08431C49.5126 4.08431 48.1667 4.08431 48.1667 4.08431H43.75V0.000976562H52.5833ZM8.41667 36.751V44.9176H17.25V49.001H8.41667C7.24529 49.001 6.1219 48.5708 5.29361 47.805C4.46533 47.0392 4 46.0006 4 44.9176V36.751H8.41667ZM52.5833 44.9176V36.751H57V44.9176C57 46.0006 56.5347 47.0392 55.7064 47.805C54.8781 48.5708 53.7547 49.001 52.5833 49.001H43.75V44.9176H52.5833Z" fill="#E0E8FB"/>
</g>
<defs>
<filter id="filter0_d_83_204" x="0" y="0.000976562" width="100.262" height="57" filterUnits="userSpaceOnUse" color-interpolation-filters="sRGB">
<feFlood flood-opacity="0" result="BackgroundImageFix"/>
<feColorMatrix in="SourceAlpha" type="matrix" values="0 0 0 0 0 0 0 0 0 0 0 0 0 0 0 0 0 0 127 0" result="hardAlpha"/>
<feOffset dy="4"/>
<feGaussianBlur stdDeviation="2"/>
<feComposite in2="hardAlpha" operator="out"/>
<feColorMatrix type="matrix" values="0 0 0 0 0 0 0 0 0 0 0 0 0 0 0 0 0 0 0.25 0"/>
<feBlend mode="normal" in2="BackgroundImageFix" result="effect1_dropShadow_83_204"/>
<feBlend mode="normal" in="SourceGraphic" in2="effect1_dropShadow_83_204" result="shape"/>
</filter>
</defs>
</svg>
